<?xml version="1.0" encoding="UTF-8" standalone="no"?>
<svg width="490px" height="408px" viewBox="0 0 490 408" version="1.1" xmlns="http://www.w3.org/2000/svg" xmlns:xlink="http://www.w3.org/1999/xlink" style="background: #F7F7F7;">
    <!-- Generator: Sketch 3.7 (28169) - http://www.bohemiancoding.com/sketch -->
    <title>Pattern Copy</title>
    <desc>Created with Sketch.</desc>
    <defs/>
    <g id="Misc" stroke="none" stroke-width="1" fill="none" fill-rule="evenodd">
        <g id="Pattern-Copy" fill="#EBEBEB">
            <path d="M276.045802,355.745311 C276.870198,355.745311 277.541985,355.072029 277.541985,354.243144 C277.541985,353.415006 276.870198,352.740976 276.045802,352.740976 C275.219908,352.740976 274.549618,353.415006 274.549618,354.243144 C274.549618,355.072029 275.219908,355.745311 276.045802,355.745311 L276.045802,355.745311 Z M278.290076,342.002121 L278.290076,366.459479 L265.572519,370.489449 L265.572519,337.298869 L278.290076,342.002121 Z M285.770992,370.763998 L285.770992,335.470533 L264.957588,335.470533 L264.076336,335.145113 L264.076336,370.763998 L259.587786,370.763998 L259.587786,372.26467 L264.076336,372.26467 L264.076336,372.537724 L264.938137,372.26467 L265.572519,372.26467 L265.572519,372.063434 L279.78626,367.559922 L279.78626,340.954792 L269.018977,336.972701 L284.274809,336.972701 L284.274809,372.26467 L290.259542,372.26467 L290.259542,370.763998 L285.770992,370.763998 Z" id="Fill-1"/>
            <path d="M145.803353,36.8983466 L148.043139,34.5919802 C148.043887,34.6465908 148.049872,34.6982092 148.049872,34.7528198 C148.049872,36.1225756 147.861353,37.4377206 147.523963,38.6705756 L145.803353,36.8983466 Z M146.918009,40.4308351 L144.612391,42.8030336 L142.341185,40.4644992 L144.756773,37.9755985 L146.981597,40.2677511 C146.959154,40.3216137 146.940452,40.3769725 146.918009,40.4308351 L146.918009,40.4308351 Z M141.149475,46.3691863 L138.879017,44.0291557 L141.293856,41.5424992 L143.565811,43.8825298 L141.149475,46.3691863 Z M137.942406,47.1501939 C137.299795,47.1501939 136.674391,47.0694 136.065444,46.9272626 L137.831689,45.1086519 L139.632345,46.9624229 C139.08175,47.0768809 138.519185,47.1501939 137.942406,47.1501939 L137.942406,47.1501939 Z M132.098315,43.8825298 L134.368773,41.5424992 L136.785108,44.0291557 L134.513154,46.3691863 L132.098315,43.8825298 Z M129.150085,40.846026 C129.037872,40.6051405 128.938376,40.3575221 128.839627,40.1054153 L130.906605,37.9763466 L133.322192,40.4644992 L131.050986,42.8030336 L129.150085,40.846026 Z M127.837185,34.8149115 L129.860024,36.8983466 L128.307734,38.4962702 C128.007002,37.3337359 127.842421,36.0978885 127.837185,34.8149115 L127.837185,34.8149115 Z M129.031139,28.9132168 L129.859276,29.7660412 L128.205994,31.4686977 C128.407231,30.5739802 128.679536,29.715171 129.031139,28.9132168 L129.031139,28.9132168 Z M131.951689,24.7897359 L133.321444,26.2006366 L130.906605,28.686545 L129.759032,27.5053084 C130.371719,26.4677053 131.111582,25.5527893 131.951689,24.7897359 L131.951689,24.7897359 Z M136.628009,22.4728962 L136.785108,22.6337359 L134.368773,25.1218885 L133.134421,23.8501328 C134.198208,23.140942 135.378696,22.6726366 136.628009,22.4728962 L136.628009,22.4728962 Z M139.06978,22.4377359 C140.334803,22.610545 141.528757,23.0736137 142.60975,23.7670947 L141.294605,25.1218885 L138.879017,22.6337359 L139.06978,22.4377359 Z M146.040498,27.3661634 L144.757521,28.686545 L142.341185,26.2006366 L143.815673,24.6820107 C144.665505,25.4301023 145.414345,26.3367893 146.040498,27.3661634 L146.040498,27.3661634 Z M142.341185,33.332942 L144.757521,30.8440412 L147.173108,33.332942 L144.756773,35.8203466 L142.341185,33.332942 Z M138.879017,36.8983466 L141.293856,34.410942 L143.709444,36.8983466 L141.293856,39.3857511 L138.879017,36.8983466 Z M137.831689,37.9755985 L140.247276,40.4644992 L137.831689,42.9526519 L135.416101,40.4644992 L137.831689,37.9755985 Z M134.368773,34.410942 L136.785108,36.8983466 L134.368773,39.3857511 L131.953933,36.8983466 L134.368773,34.410942 Z M133.322192,33.332942 L130.906605,35.8203466 L128.491017,33.332942 L130.906605,30.8440412 L133.322192,33.332942 Z M136.785108,29.7660412 L134.368773,32.254942 L131.953185,29.7660412 L134.368773,27.2786366 L136.785108,29.7660412 Z M140.247276,33.332942 L137.831689,35.8203466 L135.416101,33.332942 L137.831689,30.8440412 L140.247276,33.332942 Z M138.879017,29.7660412 L141.294605,27.2786366 L143.710192,29.7660412 L141.293856,32.254942 L138.879017,29.7660412 Z M137.831689,23.7117359 L140.247276,26.2006366 L137.831689,28.6872931 L135.416101,26.2006366 L137.831689,23.7117359 Z M147.739414,31.7589573 L145.804101,29.7660412 L146.783353,28.7583618 C147.205276,29.690484 147.523963,30.6989115 147.739414,31.7589573 L147.739414,31.7589573 Z M138.470559,20.9004076 C138.653841,19.4977359 139.867994,18.4062702 141.350711,18.4062702 C141.770391,18.4062702 142.110024,18.0733695 142.110024,17.6634153 C142.110024,17.252713 141.770391,16.9205603 141.350711,16.9205603 C140.271215,16.9205603 139.28149,17.3005908 138.510956,17.930484 C138.8072,16.6609725 139.965246,15.7094 141.350711,15.7094 C141.770391,15.7094 142.110024,15.3757511 142.110024,14.9657969 C142.110024,14.5550947 141.770391,14.2221939 141.350711,14.2221939 C140.271215,14.2221939 139.28149,14.6022244 138.510956,15.2321176 C138.8072,13.961858 139.965246,13.0087893 141.350711,13.0087893 C141.770391,13.0087893 142.110024,12.6773847 142.110024,12.2666824 C142.110024,11.8567282 141.770391,11.5230794 141.350711,11.5230794 C140.202391,11.5230794 139.158055,11.9562244 138.368818,12.6601786 L138.368818,10.4682702 C138.368818,10.058316 138.029185,9.72541527 137.610253,9.72541527 C137.190574,9.72541527 136.85094,10.058316 136.85094,10.4682702 L136.85094,12.7088046 C136.056467,11.9764229 134.98894,11.5230794 133.813689,11.5230794 C133.394757,11.5230794 133.054376,11.8567282 133.054376,12.2666824 C133.054376,12.6773847 133.394757,13.0087893 133.813689,13.0087893 C135.199902,13.0087893 136.357948,13.9626061 136.654192,15.2321176 C135.883658,14.6022244 134.893933,14.2221939 133.813689,14.2221939 C133.394757,14.2221939 133.054376,14.5550947 133.054376,14.9657969 C133.054376,15.3757511 133.394757,15.7094 133.813689,15.7094 C135.199902,15.7094 136.357948,16.6609725 136.654192,17.930484 C135.883658,17.3013389 134.893933,16.9205603 133.813689,16.9205603 C133.394757,16.9205603 133.054376,17.252713 133.054376,17.6634153 C133.054376,18.0733695 133.394757,18.4062702 133.813689,18.4062702 C135.31436,18.4062702 136.539734,19.5246672 136.699826,20.9512779 C130.88491,21.6948809 126.42778,27.5988198 126.42778,34.7528198 C126.42778,36.9462244 126.98062,39.0139496 127.739933,40.8609878 L127.739933,40.8639802 C127.739933,40.8639802 127.629963,40.8654763 127.630711,40.8662244 C129.52862,45.460255 133.426177,48.6359038 137.997765,48.6359038 C144.40891,48.6359038 149.596177,42.4087893 149.596177,34.7528198 C149.596177,27.3100565 144.63633,21.2340565 138.470559,20.9004076 L138.470559,20.9004076 Z" id="Fill-1"/>
            <path d="M411.344153,165.177878 C411.506489,165.402305 412.30545,165.776351 412.77226,165.776351 C413.170244,165.776351 413.657252,165.402305 413.657252,165.253435 L413.657252,163.981679 C413.657252,163.832061 413.194183,163.458015 412.77226,163.458015 C412.306198,163.458015 411.507237,163.757252 411.344153,163.981679 L411.344153,165.177878 L411.344153,165.177878 Z M412.77226,167.198473 C411.894,167.198473 409.835252,166.524443 409.835252,165.253435 L409.835252,163.981679 C409.835252,162.635115 411.894,161.961832 412.77226,161.961832 C413.879435,161.961832 415.166901,162.784733 415.166901,163.981679 L415.166901,165.253435 C415.166901,166.375573 413.879435,167.198473 412.77226,167.198473 L412.77226,167.198473 Z M425.81,163.981679 L425.81,165.253435 C425.858626,165.402305 426.452611,165.776351 426.876031,165.776351 C427.300198,165.776351 427.893435,165.402305 427.944305,165.177878 L427.942809,163.981679 C427.892687,163.757252 427.29945,163.458015 426.876031,163.458015 C426.457099,163.458015 425.869099,163.757252 425.81,163.981679 L425.81,163.981679 Z M426.876031,167.198473 C425.851145,167.198473 424.301099,166.450382 424.301099,165.253435 L424.301099,163.981679 C424.301099,162.709924 425.851145,161.961832 426.876031,161.961832 C427.900916,161.961832 429.45171,162.709924 429.45171,163.981679 L429.45171,165.253435 C429.45171,166.450382 427.900916,167.198473 426.876031,167.198473 L426.876031,167.198473 Z M420.029496,159.642748 L405.509786,159.642748 C405.333237,159.642748 404.74,159.717557 404.74,160.165664 L404.918794,183.581679 C404.938244,183.73055 404.586641,184.329771 404.918794,184.329771 L420.767863,184.329771 L420.767863,182.983206 C420.760382,182.908397 420.759634,182.833588 420.766366,182.833588 L420.679588,181.337405 L416.238916,181.337405 C416.048153,181.337405 410.601298,181.561832 408.589679,178.119863 C408.547038,178.045802 408.517115,177.970992 408.502901,177.821374 C408.477466,177.745817 408.374977,176.997725 408.854504,176.399252 C409.066962,176.175573 409.467191,175.875588 410.166656,175.875588 L410.166656,177.372519 L410.002824,177.372519 C409.99684,177.372519 409.989359,177.447328 409.987115,177.521389 C411.621695,180.065649 416.149893,179.841221 416.199267,179.841221 L420.767863,179.841221 L420.767863,174.080916 C420.669863,174.006107 420.305542,173.856489 419.258962,173.856489 L417.898931,173.931298 C417.596702,173.931298 417.308687,173.780931 417.176275,173.482443 L416.424443,171.98626 C416.397511,171.910702 416.378061,171.836641 416.365344,171.761832 C416.355618,171.761832 416.108748,170.490076 416.408733,168.919084 C417.297466,164.131298 418.96945,161.138931 420.029496,159.642748 L420.029496,159.642748 Z M425.432962,190.015267 C422.64258,190.015267 421.322947,187.546565 420.767863,185.751145 L404.742244,185.751145 C403.401664,185.751145 403.274489,184.478641 403.221374,183.73055 L403.231099,160.165664 C403.231099,158.669481 404.593374,158.146565 405.509038,158.146565 L421.193527,158.146565 C422.009695,157.024427 422.85429,155.826733 424.058718,154.854962 L425.025252,155.977099 C424.25771,156.650382 423.632305,157.398473 423.055527,158.146565 L423.786412,158.146565 L423.786412,158.221374 L435.679573,158.146565 C436.468809,158.146565 437.638824,158.745038 437.638824,160.315282 L437.638824,183.581679 C437.654534,183.73055 437.66426,184.629008 437.182489,185.152672 C436.937863,185.451908 436.478534,185.751145 435.682565,185.751145 L422.421145,185.751145 L422.277511,184.254214 L435.538931,184.329771 C435.643664,184.329771 435.829939,184.254214 435.905496,184.180153 C435.984794,184.105344 435.996763,183.955725 435.990031,183.880168 C435.987786,183.806107 435.985542,183.806107 435.985542,183.806107 L436.129176,160.315282 C436.129176,159.717557 435.816473,159.642748 435.682565,159.642748 L421.863069,159.717557 C421.189786,160.465649 418.949252,163.458015 417.892947,169.142763 C417.688718,170.264901 417.791206,171.163359 417.830855,171.387038 L418.318611,172.360305 L419.215573,172.360305 L419.226046,172.360305 C420.546427,172.360305 421.407481,172.584733 421.896733,173.108397 C422.279756,173.482443 422.282748,173.931298 422.276015,174.080916 L422.277511,179.691603 L425.328977,179.841221 C427.633099,179.841221 429.967145,177.596947 430.226733,177.29771 C430.234962,177.29771 430.221496,177.222901 430.167634,177.147344 L431.434901,176.399252 C431.979511,177.222901 431.72142,177.970992 431.298,178.345038 C430.801267,178.867954 428.182947,181.337405 425.296809,181.337405 L422.247588,181.187786 L422.277511,185.002305 C422.279756,185.227481 422.165298,185.227481 421.985756,185.376351 C422.490718,186.798473 423.712351,188.519084 425.432962,188.519084 L425.432962,190.015267 L425.432962,190.015267 Z" id="Fill-1093"/>
            <path d="M39.8560763,174.154977 C39.3204427,174.679389 38.71,175.128244 38.0412061,175.501542 C35.6652672,174.529771 33.3731145,172.958779 31.392916,170.938931 C29.4127176,168.993893 27.848458,166.674809 26.852,164.280168 C27.2245496,163.681695 27.6831298,163.00916 28.2195115,162.485496 C29.7732977,160.913756 31.8402748,160.091603 34.0381679,160.091603 C36.2360611,160.091603 38.3022901,160.913756 39.8568244,162.485496 C41.4106107,164.05574 42.2671756,166.151145 42.2671756,168.320611 C42.2664275,170.490076 41.4106107,172.584733 39.8560763,174.154977 L39.8560763,174.154977 Z M40.914626,161.43742 C39.0780611,159.642748 36.6362901,158.59542 34.0381679,158.59542 C31.4400458,158.59542 28.9982748,159.642748 27.1617099,161.43742 C26.435313,162.18626 25.8286107,163.00916 25.3588092,163.90687 L25.2076947,164.206107 L25.3311298,164.580153 C26.3934198,167.198473 28.1237557,169.816794 30.3351145,172.061069 C32.5464733,174.230534 35.1296336,175.951145 37.8055573,176.998473 L38.1182595,177.147344 L38.4182443,176.998473 C39.3481221,176.549618 40.1874809,175.951145 40.9138779,175.203053 C42.7511908,173.332824 43.7626107,170.938931 43.7633588,168.320611 C43.7633588,165.70229 42.7511908,163.308397 40.914626,161.43742 L40.914626,161.43742 Z M26.6328092,175.726718 C25.2017099,174.305344 24.6077252,172.285496 24.9555878,170.340458 C25.7380916,171.836641 26.7637252,173.183206 27.978626,174.379405 C29.1927786,175.577099 30.5528092,176.623679 31.9801679,177.372519 C30.0388702,177.745817 28.028,177.147344 26.6328092,175.726718 L26.6328092,175.726718 Z M15.0822748,190.612992 L11.9088702,187.471756 L24.0758321,175.277115 L25.5742595,176.774046 L25.5750076,176.774046 L25.5757557,176.774046 L27.2492366,178.494656 L15.0822748,190.612992 L15.0822748,190.612992 Z M29.0364275,173.332824 C27.4863817,171.761832 26.2774656,169.966412 25.5390992,168.096183 L24.9256641,166.524443 L24.1753282,168.021374 C23.2880916,169.816794 23.144458,171.761832 23.6718626,173.557252 L9.79326718,187.471756 L11.9088702,189.566412 L7.16372519,194.279389 L8.22152672,195.401527 L12.9666718,190.612992 L15.0822748,192.708397 L29.0663511,178.793893 C29.661084,178.943511 30.2767634,179.018321 30.9059084,179.018321 C32.0856489,179.018321 33.2638931,178.719084 34.3127176,178.19542 L35.7984275,177.447328 L34.251374,176.848855 C32.3901221,176.100763 30.5872214,174.903069 29.0364275,173.332824 L29.0364275,173.332824 Z" id="Fill-1083"/>
            <path d="M367.242047,327.881069 C364.279604,327.881069 361.870749,325.704122 361.870749,323.032687 C361.870749,320.355267 364.279604,318.185802 367.242047,318.185802 C370.20449,318.185802 372.614093,320.355267 372.614093,323.032687 C372.614093,325.704122 370.20449,327.881069 367.242047,327.881069 L367.242047,327.881069 Z M347.187207,331.412061 C344.224765,331.412061 341.815162,329.242595 341.815162,326.564427 C341.815162,323.89374 344.224765,321.716794 347.187207,321.716794 C350.148902,321.716794 352.558505,323.89374 352.558505,326.564427 C352.558505,329.242595 350.148902,331.412061 347.187207,331.412061 L347.187207,331.412061 Z M374.046688,296.992366 L352.488933,299.805191 L352.488933,322.599542 C351.241116,321.155725 349.328994,320.220611 347.187207,320.220611 C343.435528,320.220611 340.382566,323.07084 340.382566,326.564427 C340.382566,330.065496 343.435528,332.908244 347.187207,332.908244 C350.938887,332.908244 353.991101,330.065496 353.991101,326.564427 C353.991101,325.99513 353.902826,325.44229 353.750215,324.918626 L353.921528,324.918626 L353.921528,301.121832 L372.614093,298.683053 L372.614093,319.15084 C371.367772,317.662137 369.426475,316.689618 367.242047,316.689618 C363.490368,316.689618 360.438154,319.532366 360.438154,323.032687 C360.438154,326.534504 363.490368,329.377252 367.242047,329.377252 C370.993727,329.377252 374.046688,326.534504 374.046688,323.032687 C374.046688,322.674351 374.006291,322.322748 373.9442,321.977878 L374.046688,321.977878 L374.046688,296.992366 L374.046688,296.992366 Z" id="Fill-1051"/>
            <path d="M201.98174,79.2977099 C201.568794,79.2977099 201.233649,79.6343511 201.233649,80.0458015 L201.233649,95.7557252 C201.233649,96.1664275 201.568794,96.5038168 201.98174,96.5038168 C202.395435,96.5038168 202.73058,96.1664275 202.73058,95.7557252 L202.73058,80.0458015 C202.73058,79.6343511 202.395435,79.2977099 201.98174,79.2977099 L201.98174,79.2977099 Z M201.98174,72.5648855 C202.395435,72.5648855 202.73058,72.2274962 202.73058,71.8167939 L202.73058,59.8473282 C202.73058,59.4358779 202.395435,59.0992366 201.98174,59.0992366 C201.568794,59.0992366 201.233649,59.4358779 201.233649,59.8473282 L201.233649,71.8167939 C201.233649,72.2274962 201.568794,72.5648855 201.98174,72.5648855 L201.98174,72.5648855 Z M204.601557,77.0534351 L199.362672,77.0534351 C198.743252,77.0534351 198.239786,76.5522137 198.239786,75.9312977 C198.239786,75.3103817 198.743252,74.8091603 199.362672,74.8091603 L204.601557,74.8091603 C205.220977,74.8091603 205.724443,75.3103817 205.724443,75.9312977 C205.724443,76.5522137 205.220977,77.0534351 204.601557,77.0534351 L204.601557,77.0534351 Z M204.601557,73.3129771 L199.362672,73.3129771 C197.918107,73.3129771 196.742855,74.4874809 196.742855,75.9312977 C196.742855,77.3751145 197.918107,78.5496183 199.362672,78.5496183 L204.601557,78.5496183 C206.046122,78.5496183 207.221374,77.3751145 207.221374,75.9312977 C207.221374,74.4874809 206.046122,73.3129771 204.601557,73.3129771 L204.601557,73.3129771 Z M188.514595,90.519084 C188.100901,90.519084 187.765756,90.8557252 187.765756,91.2671756 L187.765756,95.7557252 C187.765756,96.1664275 188.100901,96.5038168 188.514595,96.5038168 C188.92829,96.5038168 189.262687,96.1664275 189.262687,95.7557252 L189.262687,91.2671756 C189.262687,90.8557252 188.92829,90.519084 188.514595,90.519084 L188.514595,90.519084 Z M188.514595,83.7862595 C188.92829,83.7862595 189.262687,83.4488702 189.262687,83.0381679 L189.262687,59.8473282 C189.262687,59.4358779 188.92829,59.0992366 188.514595,59.0992366 C188.100901,59.0992366 187.765756,59.4358779 187.765756,59.8473282 L187.765756,83.0381679 C187.765756,83.4488702 188.100901,83.7862595 188.514595,83.7862595 L188.514595,83.7862595 Z M191.134412,88.2748092 L185.894779,88.2748092 C185.276107,88.2748092 184.771893,87.7735878 184.771893,87.1526718 C184.771893,86.5317557 185.276107,86.0305344 185.894779,86.0305344 L191.134412,86.0305344 C191.753084,86.0305344 192.25655,86.5317557 192.25655,87.1526718 C192.25655,87.7735878 191.753084,88.2748092 191.134412,88.2748092 L191.134412,88.2748092 Z M191.134412,84.5343511 L185.894779,84.5343511 C184.450962,84.5343511 183.274962,85.708855 183.274962,87.1526718 C183.274962,88.5964885 184.450962,89.7709924 185.894779,89.7709924 L191.134412,89.7709924 C192.578977,89.7709924 193.754229,88.5964885 193.754229,87.1526718 C193.754229,85.708855 192.578977,84.5343511 191.134412,84.5343511 L191.134412,84.5343511 Z M175.056427,65.0839695 C175.469374,65.0839695 175.804519,64.7465802 175.804519,64.3358779 L175.804519,59.8473282 C175.804519,59.4358779 175.469374,59.0992366 175.056427,59.0992366 C174.642733,59.0992366 174.307588,59.4358779 174.307588,59.8473282 L174.307588,64.3358779 C174.307588,64.7465802 174.642733,65.0839695 175.056427,65.0839695 L175.056427,65.0839695 Z M175.056427,71.8167939 C174.642733,71.8167939 174.307588,72.1534351 174.307588,72.5648855 L174.307588,95.7557252 C174.307588,96.1664275 174.642733,96.5038168 175.056427,96.5038168 C175.469374,96.5038168 175.804519,96.1664275 175.804519,95.7557252 L175.804519,72.5648855 C175.804519,72.1534351 175.469374,71.8167939 175.056427,71.8167939 L175.056427,71.8167939 Z M177.675496,69.5725191 L172.436611,69.5725191 C171.817191,69.5725191 171.313725,69.0712977 171.313725,68.4503817 C171.313725,67.8287176 171.817191,67.3282443 172.436611,67.3282443 L177.675496,67.3282443 C178.294916,67.3282443 178.798382,67.8287176 178.798382,68.4503817 C178.798382,69.0712977 178.294916,69.5725191 177.675496,69.5725191 L177.675496,69.5725191 Z M177.675496,65.8320611 L172.436611,65.8320611 C170.992046,65.8320611 169.816794,67.0065649 169.816794,68.4503817 C169.816794,69.8941985 170.992046,71.0687023 172.436611,71.0687023 L177.675496,71.0687023 C179.120061,71.0687023 180.295313,69.8941985 180.295313,68.4503817 C180.295313,67.0065649 179.120061,65.8320611 177.675496,65.8320611 L177.675496,65.8320611 Z" id="Fill-1057"/>
            <path d="M464.938931,217.694656 L464.938931,219.19084 C469.683328,219.19084 473.541985,223.080916 473.541985,227.793893 L475.038168,227.793893 C475.038168,222.258015 470.506977,217.694656 464.938931,217.694656 L464.938931,217.694656 Z M464.938931,213.954198 L464.546931,213.954198 L464.581344,215.450382 L464.938931,215.450382 C471.745069,215.450382 477.282443,220.98626 477.282443,227.793893 L478.778626,227.793893 C478.778626,220.162611 472.570214,213.954198 464.938931,213.954198 L464.938931,213.954198 Z M464.938931,233.40458 C461.844824,233.40458 459.328244,230.860321 459.328244,227.793893 C459.328244,224.726718 461.844824,222.183206 464.938931,222.183206 C468.033038,222.183206 470.549618,224.726718 470.549618,227.793893 C470.549618,230.860321 468.033038,233.40458 464.938931,233.40458 L464.938931,233.40458 Z M464.938931,220.687023 C461.020427,220.687023 457.832061,223.903069 457.832061,227.793893 C457.832061,231.683969 461.020427,234.900763 464.938931,234.900763 C468.857435,234.900763 472.045802,231.683969 472.045802,227.793893 C472.045802,223.903069 468.857435,220.687023 464.938931,220.687023 L464.938931,220.687023 Z M464.938931,243.877863 C456.070305,243.877863 448.854962,236.696183 448.854962,227.793893 C448.854962,218.891603 456.070305,211.709924 464.938931,211.709924 C473.807557,211.709924 481.022901,218.891603 481.022901,227.793893 C481.022901,236.696183 473.807557,243.877863 464.938931,243.877863 L464.938931,243.877863 Z M464.938931,210.21374 C455.24516,210.21374 447.358779,218.068702 447.358779,227.793893 C447.358779,237.519084 455.24516,245.374046 464.938931,245.374046 C474.632702,245.374046 482.519084,237.519084 482.519084,227.793893 C482.519084,218.068702 474.632702,210.21374 464.938931,210.21374 L464.938931,210.21374 Z" id="Fill-1069"/>
            <path d="M42.2671756,44.8854962 C41.1465344,44.8854962 40.0558168,44.7351298 39.0032519,44.5114504 L41.020855,35.7580305 C41.4240763,35.8335878 41.8407634,35.9083969 42.2671756,35.9083969 C45.7734809,35.9083969 48.6259542,33.0656489 48.6259542,29.5496183 C48.6259542,29.1007634 48.5803206,28.6519084 48.4942901,28.2771145 L57.0217863,25.4351145 C57.3913435,26.7068702 57.6030534,28.1282443 57.6030534,29.5496183 C57.6030534,38.0023053 50.7236031,44.8854962 42.2671756,44.8854962 L42.2671756,44.8854962 Z M27.6644275,34.1877863 L36.2465344,31.5694656 C36.8061069,33.2152672 38.0269924,34.5618321 39.5942443,35.3099237 L37.5571908,44.1374046 C32.8718931,42.6412214 29.1688397,38.9007634 27.6644275,34.1877863 L27.6644275,34.1877863 Z M42.2671756,14.2137405 C43.3878168,14.2137405 44.4785344,14.3633588 45.5310992,14.5877863 L43.5134962,23.340458 C43.1102748,23.2656489 42.6935878,23.1908397 42.2671756,23.1908397 C38.7608702,23.1908397 35.9083969,26.0328397 35.9083969,29.5496183 C35.9083969,29.7740458 35.9203664,29.9236641 35.9368244,30.0732824 L27.2791603,32.7656641 C27.0554809,31.719084 26.9312977,30.6717557 26.9312977,29.5496183 C26.9312977,21.0961832 33.8107481,14.2137405 42.2671756,14.2137405 L42.2671756,14.2137405 Z M37.4045802,29.5496183 C37.4045802,26.8564885 39.5860153,24.6870229 42.2671756,24.6870229 C44.9483359,24.6870229 47.129771,26.8564885 47.129771,29.5496183 C47.129771,32.2427481 44.9483359,34.4122137 42.2671756,34.4122137 C39.5860153,34.4122137 37.4045802,32.2427481 37.4045802,29.5496183 L37.4045802,29.5496183 Z M56.5482443,24.0129924 L48.0140153,26.8564885 C47.3788855,25.5099237 46.2881679,24.3877863 44.9401069,23.7885649 L46.9771603,14.9618321 C51.3647176,16.3832061 54.8822443,19.7496183 56.5482443,24.0129924 L56.5482443,24.0129924 Z M42.2671756,12.7175573 C32.9856031,12.7175573 25.4351145,20.2732824 25.4351145,29.5496183 C25.4351145,38.8259542 32.9856031,46.3816794 42.2671756,46.3816794 C51.5487481,46.3816794 59.0992366,38.8259542 59.0992366,29.5496183 C59.0992366,20.2732824 51.5487481,12.7175573 42.2671756,12.7175573 L42.2671756,12.7175573 Z" id="Fill-1065"/>
            <path d="M386.763359,97.2519084 C386.763359,98.4862595 385.756427,99.4961832 384.519084,99.4961832 L384.519084,66.5801527 C385.756427,66.5801527 386.763359,67.5893282 386.763359,68.8244275 L386.763359,97.2519084 L386.763359,97.2519084 Z M368.061069,99.4961832 L368.061069,97.2519084 L369.557252,97.2519084 C369.970947,97.2519084 370.305344,96.9152672 370.305344,96.5038168 C370.305344,96.0923664 369.970947,95.7557252 369.557252,95.7557252 L368.061069,95.7557252 L368.061069,94.259542 L369.557252,94.259542 C369.970947,94.259542 370.305344,93.9229008 370.305344,93.5114504 C370.305344,93.1 369.970947,92.7633588 369.557252,92.7633588 L368.061069,92.7633588 L368.061069,91.2671756 L369.557252,91.2671756 C369.970947,91.2671756 370.305344,90.9297863 370.305344,90.519084 C370.305344,90.1068855 369.970947,89.7709924 369.557252,89.7709924 L368.061069,89.7709924 L368.061069,88.2748092 L369.557252,88.2748092 C369.970947,88.2748092 370.305344,87.9381679 370.305344,87.5267176 C370.305344,87.1152672 369.970947,86.778626 369.557252,86.778626 L368.061069,86.778626 L368.061069,85.2824427 L369.557252,85.2824427 C369.970947,85.2824427 370.305344,84.9458015 370.305344,84.5343511 C370.305344,84.1229008 369.970947,83.7862595 369.557252,83.7862595 L368.061069,83.7862595 L368.061069,82.2900763 L369.557252,82.2900763 C369.970947,82.2900763 370.305344,81.952687 370.305344,81.5419847 C370.305344,81.1297863 369.970947,80.7938931 369.557252,80.7938931 L368.061069,80.7938931 L368.061069,79.2977099 L369.557252,79.2977099 C369.970947,79.2977099 370.305344,78.9610687 370.305344,78.5496183 C370.305344,78.1381679 369.970947,77.8015267 369.557252,77.8015267 L368.061069,77.8015267 L368.061069,76.3053435 L369.557252,76.3053435 C369.970947,76.3053435 370.305344,75.9687023 370.305344,75.5572519 C370.305344,75.1458015 369.970947,74.8091603 369.557252,74.8091603 L368.061069,74.8091603 L368.061069,73.3129771 L369.557252,73.3129771 C369.970947,73.3129771 370.305344,72.9755878 370.305344,72.5648855 C370.305344,72.152687 369.970947,71.8167939 369.557252,71.8167939 L368.061069,71.8167939 L368.061069,70.3206107 L369.557252,70.3206107 C369.970947,70.3206107 370.305344,69.9839695 370.305344,69.5725191 C370.305344,69.1610687 369.970947,68.8244275 369.557252,68.8244275 L368.061069,68.8244275 L368.061069,66.5801527 L383.022901,66.5801527 L383.022901,99.4961832 L368.061069,99.4961832 L368.061069,99.4961832 Z M356.839695,99.4961832 L356.839695,93.7433588 C356.839695,91.9621527 355.396626,90.519084 353.616916,90.519084 L347.862595,90.519084 L347.862595,68.8244275 C347.862595,67.5893282 348.869527,66.5801527 350.10687,66.5801527 L366.564885,66.5801527 L366.564885,68.8244275 L365.068702,68.8244275 C364.655756,68.8244275 364.320611,69.1610687 364.320611,69.5725191 C364.320611,69.9839695 364.655756,70.3206107 365.068702,70.3206107 L366.564885,70.3206107 L366.564885,71.8167939 L365.068702,71.8167939 C364.655756,71.8167939 364.320611,72.152687 364.320611,72.5648855 C364.320611,72.9755878 364.655756,73.3129771 365.068702,73.3129771 L366.564885,73.3129771 L366.564885,74.8091603 L365.068702,74.8091603 C364.655756,74.8091603 364.320611,75.1458015 364.320611,75.5572519 C364.320611,75.9687023 364.655756,76.3053435 365.068702,76.3053435 L366.564885,76.3053435 L366.564885,77.8015267 L365.068702,77.8015267 C364.655756,77.8015267 364.320611,78.1381679 364.320611,78.5496183 C364.320611,78.9610687 364.655756,79.2977099 365.068702,79.2977099 L366.564885,79.2977099 L366.564885,80.7938931 L365.068702,80.7938931 C364.655756,80.7938931 364.320611,81.1297863 364.320611,81.5419847 C364.320611,81.952687 364.655756,82.2900763 365.068702,82.2900763 L366.564885,82.2900763 L366.564885,83.7862595 L365.068702,83.7862595 C364.655756,83.7862595 364.320611,84.1229008 364.320611,84.5343511 C364.320611,84.9458015 364.655756,85.2824427 365.068702,85.2824427 L366.564885,85.2824427 L366.564885,86.778626 L365.068702,86.778626 C364.655756,86.778626 364.320611,87.1152672 364.320611,87.5267176 C364.320611,87.9381679 364.655756,88.2748092 365.068702,88.2748092 L366.564885,88.2748092 L366.564885,89.7709924 L365.068702,89.7709924 C364.655756,89.7709924 364.320611,90.1068855 364.320611,90.519084 C364.320611,90.9297863 364.655756,91.2671756 365.068702,91.2671756 L366.564885,91.2671756 L366.564885,92.7633588 L365.068702,92.7633588 C364.655756,92.7633588 364.320611,93.1 364.320611,93.5114504 C364.320611,93.9229008 364.655756,94.259542 365.068702,94.259542 L366.564885,94.259542 L366.564885,95.7557252 L365.068702,95.7557252 C364.655756,95.7557252 364.320611,96.0923664 364.320611,96.5038168 C364.320611,96.9152672 364.655756,97.2519084 365.068702,97.2519084 L366.564885,97.2519084 L366.564885,99.4961832 L356.839695,99.4961832 L356.839695,99.4961832 Z M355.343511,97.3783359 L349.978198,92.0152672 L353.73287,92.0152672 C354.684443,92.0152672 355.343511,92.7932824 355.343511,93.7433588 L355.343511,97.3783359 L355.343511,97.3783359 Z M384.519084,65.0839695 L350.10687,65.0839695 C348.044382,65.0839695 346.366412,66.7596947 346.366412,68.8244275 L346.366412,90.519084 L356.839695,100.992366 L384.519084,100.992366 C386.581573,100.992366 388.259542,99.3166412 388.259542,97.2519084 L388.259542,68.8244275 C388.259542,66.7596947 386.581573,65.0839695 384.519084,65.0839695 L384.519084,65.0839695 Z" id="Fill-1045"/>
            <path d="M372.096538,148.915115 L371.043225,147.859557 C370.752217,147.56855 370.280171,147.56855 369.99066,147.859557 C369.699652,148.152809 369.699652,148.622611 369.99066,148.915115 L371.043973,149.969176 L366.304064,154.705344 L365.2515,153.649786 C364.960492,153.358779 364.488446,153.358779 364.198187,153.649786 C363.907179,153.94229 363.907179,154.413588 364.198187,154.705344 L365.2515,155.759405 L359.984935,161.019237 L358.930874,159.964427 C358.640614,159.680153 358.169316,159.680153 357.878309,159.964427 C357.588049,160.256183 357.588049,160.727481 357.878309,161.019237 L358.930874,162.074046 L354.191713,166.809466 L353.1384,165.753908 C352.848141,165.462901 352.376843,165.462901 352.085087,165.753908 C351.79408,166.046412 351.79408,166.51771 352.085087,166.809466 L353.1384,167.864275 L349.979209,171.020473 L347.116263,168.155282 C341.846706,162.889466 340.383438,154.817557 343.474553,148.061542 C344.253316,146.364122 345.308874,144.808092 346.58811,143.424122 L347.345179,144.178947 C347.490309,144.321832 347.681072,144.395893 347.871835,144.395893 C348.062599,144.395893 348.253362,144.321832 348.398492,144.178947 C348.6895,143.887939 348.6895,143.415893 348.398492,143.124885 L347.63095,142.361832 C350.936767,139.317099 355.199393,137.641374 359.718614,137.641374 C364.50266,137.641374 369.003927,139.511603 372.395026,142.900458 L375.257225,145.758168 L372.096538,148.915115 L372.096538,148.915115 Z M376.837194,145.233756 L373.448339,141.844901 C369.776706,138.172519 364.900645,136.152672 359.718614,136.152672 C354.553042,136.152672 349.694187,138.16429 346.038263,141.823206 C344.393958,143.461527 343.07582,145.354198 342.120507,147.448107 C338.770553,154.75771 340.355011,163.502901 346.06295,169.21084 L349.452553,172.599695 C349.592446,172.741832 349.781713,172.816641 349.979209,172.816641 L349.979958,172.816641 C350.176706,172.816641 350.365973,172.741832 350.505866,172.599695 L360.510095,162.596962 L360.511591,162.596962 L360.513087,162.596962 L376.836446,146.289313 C376.977087,146.146427 377.055637,145.951924 377.055637,145.758168 C377.055637,145.563664 376.977087,145.36916 376.837194,145.233756 L376.837194,145.233756 Z M350.403377,163.225359 C346.301591,158.542305 346.47066,150.881847 350.91208,146.446412 C353.145133,144.209618 356.207072,142.982748 359.531591,142.982748 C362.604003,142.982748 365.538767,144.052519 367.703744,145.93771 L350.403377,163.225359 L350.403377,163.225359 Z M359.531591,141.494046 C355.809835,141.494046 352.373851,142.878015 349.858767,145.390855 C344.679729,150.567649 344.680477,159.650229 349.859515,164.827023 C350.004645,164.96916 350.195408,165.043969 350.386171,165.043969 C350.576187,165.043969 350.766202,164.96916 350.912828,164.827023 L369.301668,146.446412 C369.440813,146.303527 369.52011,146.116504 369.52011,145.922 C369.52011,145.720763 369.440813,145.53374 369.301668,145.390855 C366.821744,142.91542 363.261576,141.494046 359.531591,141.494046 L359.531591,141.494046 Z" id="Fill-1048"/>
            <path d="M353.847328,249.114504 C353.847328,252.002137 351.497573,254.351145 348.610687,254.351145 C345.723802,254.351145 343.374046,252.002137 343.374046,249.114504 C343.374046,246.226122 345.723802,243.877863 348.610687,243.877863 C351.497573,243.877863 353.847328,246.226122 353.847328,249.114504 L353.847328,249.114504 Z M341.877863,249.114504 C341.877863,252.82429 344.897908,255.847328 348.610687,255.847328 C350.198137,255.847328 351.656168,255.29374 352.808229,254.374336 L357.058885,258.622748 L358.116687,257.560458 L353.866031,253.311298 C354.788427,252.159237 355.343511,250.700458 355.343511,249.114504 C355.343511,245.403969 352.323466,242.381679 348.610687,242.381679 C344.897908,242.381679 341.877863,245.403969 341.877863,249.114504 L341.877863,249.114504 Z M327.664122,250.610687 L341.129771,250.610687 L341.129771,249.114504 L327.664122,249.114504 C324.777237,249.114504 322.427481,246.765496 322.427481,243.877863 C322.427481,240.989481 324.777237,238.641221 327.664122,238.641221 L350.10687,238.641221 L350.10687,237.145038 L327.664122,237.145038 C323.951344,237.145038 320.931298,240.167328 320.931298,243.877863 C320.931298,247.588397 323.951344,250.610687 327.664122,250.610687 L327.664122,250.610687 Z M327.664122,264.076336 C324.777237,264.076336 322.427481,261.727328 322.427481,258.839695 C322.427481,255.952061 324.777237,253.603053 327.664122,253.603053 L341.129771,253.603053 L341.129771,252.10687 L327.664122,252.10687 C323.951344,252.10687 320.931298,255.12916 320.931298,258.839695 C320.931298,262.550229 323.951344,265.572519 327.664122,265.572519 L358.335878,265.572519 L358.335878,264.076336 L327.664122,264.076336 L327.664122,264.076336 Z" id="Fill-1039"/>
            <path d="M311.555324,45.5224962 L306.829629,40.7960534 L308.570438,33.0899618 L313.916301,38.4380687 L313.917049,38.4380687 L313.918545,38.4380687 L319.264408,43.7801908 L311.555324,45.5224962 L311.555324,45.5224962 Z M306.442866,42.5084351 L309.842194,45.9115038 L305.451644,46.8997328 L306.442866,42.5084351 L306.442866,42.5084351 Z M326.651812,14.1482824 L328.839232,22.4670611 L314.442209,36.8595954 L309.19285,31.6087405 L326.651812,14.1482824 L326.651812,14.1482824 Z M320.741889,43.1592748 L320.510728,42.9266183 L315.49253,37.9076718 L329.888805,23.5136412 L338.20085,25.6988168 L320.741889,43.1592748 L320.741889,43.1592748 Z M340.164591,24.7853969 C340.068087,24.6888931 339.949141,24.6357786 339.825705,24.605855 L339.828698,24.5908931 L330.273324,22.0780534 L327.75824,12.5249237 L327.747018,12.5249237 C327.71485,12.405229 327.662484,12.2855344 327.565232,12.1882824 C327.274973,11.8965267 326.806667,11.8965267 326.51566,12.1882824 L307.618118,31.0850763 C307.615873,31.0850763 307.615125,31.0918092 307.612881,31.0918092 C307.552286,31.1524046 307.505904,31.2272137 307.469247,31.3095038 C307.461018,31.3319466 307.454286,31.3469084 307.447553,31.3686031 C307.437828,31.3910458 307.424362,31.4217176 307.417629,31.4516412 L303.743003,47.7226336 C303.687644,47.9695038 303.763202,48.2313359 303.943492,48.4108779 C304.123034,48.5904198 304.382621,48.6644809 304.630988,48.6128626 L320.905721,44.9315038 C320.931904,44.9315038 320.955095,44.9172901 320.979782,44.9098092 C321.002973,44.9023282 321.023919,44.8940992 321.045614,44.8798855 C321.124912,44.8499618 321.197476,44.7975954 321.259568,44.737 L321.267049,44.737 L340.164591,25.8334733 C340.455599,25.5491985 340.45485,25.0771527 340.164591,24.7853969 L340.164591,24.7853969 Z" id="Fill-1015"/>
            <path d="M414.894595,279.068092 C414.206351,279.068092 413.646031,278.507023 413.646031,277.803817 C413.646031,277.108092 414.206351,276.539542 414.894595,276.539542 C415.583588,276.539542 416.14316,277.108092 416.14316,277.803817 C416.14316,278.507023 415.583588,279.068092 414.894595,279.068092 L414.894595,279.068092 Z M414.894595,275.043359 C413.390183,275.043359 412.166305,276.27771 412.166305,277.803817 C412.166305,279.329924 413.390183,280.571756 414.894595,280.571756 C416.399756,280.571756 417.623634,279.329924 417.623634,277.803817 C417.623634,276.27771 416.399756,275.043359 414.894595,275.043359 L414.894595,275.043359 Z M430.516244,299.543359 C427.434107,302.243969 423.525328,303.725191 419.425786,303.725191 C414.893847,303.725191 410.633466,301.929771 407.429389,298.683053 C404.223069,295.436336 402.457573,291.119099 402.457573,286.519084 C402.457573,281.925053 404.223069,277.609313 407.429389,274.362595 C410.63571,271.108397 414.897588,269.320458 419.432519,269.320458 C423.796137,269.320458 427.909145,270.981221 431.07058,273.996031 L418.189191,287.050229 L430.516244,299.543359 L430.516244,299.543359 Z M433.161496,274.003511 L432.482229,273.300305 C428.996122,269.761832 424.361695,267.816794 419.432519,267.816794 C414.502595,267.816794 409.868168,269.761832 406.382809,273.300305 C402.896702,276.83055 400.977099,281.529313 400.977099,286.519084 C400.977099,291.516336 402.896702,296.213603 406.382809,299.745344 C409.866672,303.276336 414.498855,305.221374 419.425786,305.221374 L419.426534,305.221374 C424.15971,305.221374 428.660229,303.410992 432.09771,300.111908 L432.651298,299.588244 L420.282351,287.050229 L433.161496,274.003511 L433.161496,274.003511 Z" id="Fill-785"/>
            <path d="M238.267176,21.2899389 C237.234061,21.2899389 236.396947,22.1285496 236.396947,23.1534351 C236.396947,24.1858015 237.234061,25.0236641 238.267176,25.0236641 C239.30029,25.0236641 240.137405,24.1858015 240.137405,23.1534351 C240.137405,22.1285496 239.30029,21.2899389 238.267176,21.2899389 L238.267176,21.2899389 Z M228.541985,21.2899389 C227.50887,21.2899389 226.671756,22.1285496 226.671756,23.1534351 C226.671756,24.1858015 227.50887,25.0236641 228.541985,25.0236641 C229.575099,25.0236641 230.412214,24.1858015 230.412214,23.1534351 C230.412214,22.1285496 229.575099,21.2899389 228.541985,21.2899389 L228.541985,21.2899389 Z M244.625954,42.9629008 L242.768443,41.1076336 L240.284031,43.5912977 L237.800366,41.1076336 L235.316702,43.5912977 L232.83229,41.1076336 L230.348626,43.5912977 L227.864962,41.1076336 L225.38055,43.5912977 L222.896885,41.1076336 L221.435115,42.5656641 L221.435115,22.7262748 C221.435115,16.3757252 226.608916,11.221374 232.968443,11.221374 L233.092626,11.221374 C239.452153,11.221374 244.625954,16.3757252 244.625954,22.7262748 L244.625954,42.9629008 L244.625954,42.9629008 Z M233.092626,9.72519084 L232.968443,9.72519084 C225.783771,9.72519084 219.938931,15.5528244 219.938931,22.7262748 L219.938931,46.1722137 L222.896885,43.2172519 L225.38055,45.700916 L227.864962,43.2172519 L230.348626,45.700916 L232.83229,43.2172519 L235.316702,45.700916 L237.800366,43.2172519 L240.284031,45.700916 L242.768443,43.2172519 L244.830931,45.2819847 L246.015908,46.3816794 L246.111664,44.720916 C246.116901,44.6461069 246.122137,44.5638168 246.122137,44.4815267 L246.122137,22.7262748 C246.122137,15.5528244 240.277298,9.72519084 233.092626,9.72519084 L233.092626,9.72519084 Z" id="Fill-789"/>
            <path d="M57.6030534,365.405344 L50.870229,362.345649 L50.870229,352.829924 L57.6030534,349.769481 L57.6030534,365.405344 L57.6030534,365.405344 Z M49.3740458,363.722137 C49.3740458,366.115282 47.4275115,368.061069 45.0351145,368.061069 L26.0335878,368.061069 C23.6411908,368.061069 21.6946565,366.115282 21.6946565,363.722137 L21.6946565,352.201527 C21.6946565,349.807634 23.6411908,347.862595 26.0335878,347.862595 L45.0351145,347.862595 C47.4275115,347.862595 49.3740458,349.807634 49.3740458,352.201527 L49.3740458,363.722137 L49.3740458,363.722137 Z M24.6870229,342.251908 C24.6870229,339.985191 26.5325649,338.137405 28.8015267,338.137405 C31.0697405,338.137405 32.9160305,339.985191 32.9160305,342.251908 C32.9160305,344.517878 31.0697405,346.366412 28.8015267,346.366412 C26.5325649,346.366412 24.6870229,344.517878 24.6870229,342.251908 L24.6870229,342.251908 Z M35.9270992,346.366412 L32.6033282,346.366412 C33.2234962,345.789634 33.7134962,345.087176 34.0254504,344.286718 C34.5229313,345.093908 35.1692824,345.797863 35.9270992,346.366412 L35.9270992,346.366412 Z M40.3969466,334.396947 C43.6967786,334.396947 46.3816794,337.081847 46.3816794,340.381679 C46.3816794,343.680763 43.6967786,346.366412 40.3969466,346.366412 C37.0971145,346.366412 34.4122137,343.680763 34.4122137,340.381679 C34.4122137,337.081847 37.0971145,334.396947 40.3969466,334.396947 L40.3969466,334.396947 Z M59.0992366,347.451145 L50.7827023,351.229008 C50.3181374,348.476031 47.9212519,346.366412 45.0351145,346.366412 L44.8667939,346.366412 C46.6898931,345.004885 47.8778626,342.827939 47.8778626,340.381679 C47.8778626,336.259695 44.5219237,332.900763 40.3969466,332.900763 C36.8592214,332.900763 33.8960305,335.369466 33.1195115,338.676031 C32.0901374,337.434198 30.5363511,336.641221 28.8015267,336.641221 C25.7074198,336.641221 23.1908397,339.16229 23.1908397,342.251908 C23.1908397,343.919405 23.928458,345.423817 25.0909924,346.448702 C22.3215573,346.905038 20.1984733,349.306412 20.1984733,352.201527 L20.1984733,363.722137 C20.1984733,366.938931 22.8160458,369.557252 26.0335878,369.557252 L45.0351145,369.557252 C48.1658779,369.557252 50.7213588,367.080321 50.8567634,363.983969 L59.0992366,367.723679 L59.0992366,347.451145 L59.0992366,347.451145 Z" id="Fill-660"/>
            <path d="M194.723008,311.423053 L186.119954,320.026107 C185.82745,320.317863 185.82745,320.795893 186.119954,321.087649 C186.265832,321.230534 186.457344,321.305344 186.648855,321.305344 C186.840366,321.305344 187.031878,321.230534 187.177756,321.087649 L195.780809,312.484595 C196.073313,312.193588 196.073313,311.714809 195.780809,311.423053 C195.488305,311.131298 195.015511,311.131298 194.723008,311.423053 L194.723008,311.423053 Z M186.80371,315.476962 L190.170122,312.11055 C190.462626,311.818794 190.462626,311.340763 190.170122,311.049008 C189.877618,310.756504 189.404824,310.756504 189.112321,311.049008 L185.745908,314.41542 C185.453405,314.707176 185.453405,315.185206 185.745908,315.476962 C185.891786,315.619847 186.083298,315.694656 186.274809,315.694656 C186.466321,315.694656 186.657832,315.619847 186.80371,315.476962 L186.80371,315.476962 Z M185.900763,334.396947 C185.282092,334.396947 184.778626,333.895725 184.778626,333.274809 C184.778626,332.653893 185.282092,332.152672 185.900763,332.152672 C186.519435,332.152672 187.022901,332.653893 187.022901,333.274809 C187.022901,333.895725 186.519435,334.396947 185.900763,334.396947 L185.900763,334.396947 Z M185.900763,330.656489 C184.456947,330.656489 183.282443,331.830992 183.282443,333.274809 C183.282443,334.718626 184.456947,335.89313 185.900763,335.89313 C187.34458,335.89313 188.519084,334.718626 188.519084,333.274809 C188.519084,331.830992 187.34458,330.656489 185.900763,330.656489 L185.900763,330.656489 Z M209.465649,332.900763 L197.496183,332.900763 C197.083237,332.900763 196.748092,333.237405 196.748092,333.648855 C196.748092,334.059557 197.083237,334.396947 197.496183,334.396947 L209.465649,334.396947 C209.879344,334.396947 210.21374,334.059557 210.21374,333.648855 C210.21374,333.237405 209.879344,332.900763 209.465649,332.900763 L209.465649,332.900763 Z M208.717557,326.916031 C208.717557,327.326733 208.382412,327.664122 207.969466,327.664122 L185.526718,327.664122 C185.114519,327.664122 184.778626,327.326733 184.778626,326.916031 L184.778626,310.458015 C184.778626,310.046565 185.114519,309.709924 185.526718,309.709924 L207.969466,309.709924 C208.382412,309.709924 208.717557,310.046565 208.717557,310.458015 L208.717557,326.916031 L208.717557,326.916031 Z M207.969466,308.21374 L185.526718,308.21374 C184.289374,308.21374 183.282443,309.215435 183.282443,310.458015 L183.282443,326.916031 C183.282443,328.149634 184.289374,329.160305 185.526718,329.160305 L207.969466,329.160305 C209.206809,329.160305 210.21374,328.149634 210.21374,326.916031 L210.21374,310.458015 C210.21374,309.215435 209.206809,308.21374 207.969466,308.21374 L207.969466,308.21374 Z M211.709924,337.389313 C211.709924,337.800763 211.374779,338.137405 210.961832,338.137405 L182.534351,338.137405 C182.122153,338.137405 181.78626,337.800763 181.78626,337.389313 L181.78626,307.465649 C181.78626,307.054198 182.122153,306.717557 182.534351,306.717557 L210.961832,306.717557 C211.374779,306.717557 211.709924,307.054198 211.709924,307.465649 L211.709924,337.389313 L211.709924,337.389313 Z M209.465649,341.877863 C209.465649,342.289313 209.130504,342.625954 208.717557,342.625954 L184.778626,342.625954 C184.366427,342.625954 184.030534,342.289313 184.030534,341.877863 L184.030534,339.633588 L209.465649,339.633588 L209.465649,341.877863 L209.465649,341.877863 Z M210.961832,305.221374 L182.534351,305.221374 C181.297008,305.221374 180.290076,306.231298 180.290076,307.465649 L180.290076,337.389313 C180.290076,338.623664 181.297008,339.633588 182.534351,339.633588 L182.534351,341.877863 C182.534351,343.112214 183.541282,344.122137 184.778626,344.122137 L208.717557,344.122137 C209.954901,344.122137 210.961832,343.112214 210.961832,341.877863 L210.961832,339.633588 C212.199176,339.633588 213.206107,338.623664 213.206107,337.389313 L213.206107,307.465649 C213.206107,306.231298 212.199176,305.221374 210.961832,305.221374 L210.961832,305.221374 Z" id="Fill-678"/>
            <path d="M181.047145,228.167939 C176.508473,228.167939 172.815893,224.479847 172.815893,219.938931 C172.815893,215.404748 176.508473,211.709924 181.047145,211.709924 C185.585817,211.709924 189.278397,215.404748 189.278397,219.938931 C189.278397,224.479847 185.585817,228.167939 181.047145,228.167939 L181.047145,228.167939 Z M190.775328,219.938931 C190.775328,214.575115 186.410962,210.21374 181.047145,210.21374 C175.683328,210.21374 171.318962,214.575115 171.318962,219.938931 C171.318962,225.302 175.683328,229.664122 181.047145,229.664122 C186.410962,229.664122 190.775328,225.302 190.775328,219.938931 L190.775328,219.938931 Z M174.262702,247.618321 L177.816885,242.688397 L183.894382,247.20687 L186.528412,243.107328 L196.946336,246.054809 L197.851527,249.862595 L174.629267,249.862595 L174.629267,247.618321 L174.262702,247.618321 L174.262702,247.618321 Z M173.118122,247.618321 L173.118122,249.862595 L163.49542,249.862595 L165.192092,242.725802 L173.669466,247.618321 L173.118122,247.618321 L173.118122,247.618321 Z M166.161618,238.641221 L180.292321,238.641221 L180.292321,242.658473 L177.486229,240.578779 L173.658992,245.882748 L165.554168,241.199695 L166.161618,238.641221 L166.161618,238.641221 Z M181.802718,243.129771 L181.802718,238.641221 L187.60716,238.641221 L183.496397,245.037405 L180.925954,243.129771 L181.802718,243.129771 L181.802718,243.129771 Z M195.18458,238.641221 L196.549847,244.386565 L187.374504,241.789939 L189.39884,238.641221 L195.18458,238.641221 L195.18458,238.641221 Z M196.381527,237.145038 L181.802718,237.145038 L181.802718,229.664122 L180.292321,229.664122 L180.292321,237.145038 L164.964672,237.145038 L161.587786,251.358779 L199.75916,251.358779 L196.381527,237.145038 L196.381527,237.145038 Z" id="Fill-549"/>
            <path d="M298.633679,198.214351 C298.626947,198.221832 298.617969,198.229313 298.611985,198.244275 C298.465359,198.049023 298.241679,197.907634 297.976855,197.907634 C297.532489,197.907634 297.172656,198.266718 297.172656,198.707344 C297.172656,199.014809 297.348458,199.268412 297.598321,199.403817 C297.587099,199.418779 297.577374,199.425511 297.566153,199.441221 C298.64116,201.782748 299.245618,204.393588 299.245618,207.139084 C299.245618,207.931313 299.189511,208.717557 299.091511,209.488092 L300.594427,209.488092 C300.685695,208.717557 300.737313,207.931313 300.737313,207.139084 C300.737313,203.937252 299.977252,200.906733 298.633679,198.214351 L298.633679,198.214351 Z M280.536595,188.504122 C284.073573,188.504122 287.38313,189.491603 290.207176,191.197252 C290.211664,191.189771 290.217649,191.18229 290.222137,191.18229 C290.362031,191.368565 290.577481,191.503969 290.83258,191.503969 C291.257496,191.503969 291.602366,191.159847 291.602366,190.740168 C291.602366,190.546412 291.523817,190.374351 291.404122,190.239695 C291.41684,190.231466 291.425817,190.217252 291.437786,190.217252 C291.341282,190.149176 291.239542,190.097557 291.141542,190.03771 C291.137053,190.03771 291.134809,190.029481 291.130321,190.029481 C288.047435,188.130076 284.422183,187.022901 280.536595,187.022901 C269.397511,187.022901 260.335878,196.044137 260.335878,207.139084 C260.335878,207.917099 260.386748,208.687634 260.474275,209.443206 C260.474275,209.450687 260.46829,209.465649 260.46829,209.47313 C260.46829,209.883832 260.804931,210.221221 261.220122,210.221221 C261.62858,210.221221 261.95774,209.899542 261.968214,209.488092 L261.981679,209.488092 C261.883679,208.717557 261.827573,207.931313 261.827573,207.139084 C261.827573,196.860305 270.220412,188.504122 280.536595,188.504122 L280.536595,188.504122 Z M286.792137,206.548092 C286.746504,206.578015 286.703115,206.607191 286.663466,206.645344 C286.570702,206.742595 286.507863,206.854809 286.474198,206.974504 C286.399389,207.071756 286.252015,207.243817 286.110626,207.385206 C285.567511,207.92458 284.848595,208.223817 284.08629,208.223817 C283.303786,208.223817 282.562427,207.917099 281.997618,207.356031 C280.854534,206.21145 280.845557,204.371145 281.97742,203.240779 C282.131527,203.091908 282.328275,202.927328 282.415053,202.867481 C282.51455,202.830076 282.608809,202.770229 282.690351,202.694672 L293.270611,196.14887 L286.792137,206.548092 L286.792137,206.548092 Z M296.325817,193.030076 C296.164229,192.865496 295.942046,192.790687 295.71313,192.820611 C295.487206,192.843053 295.285221,192.970229 295.166275,193.164733 L295.09745,193.269466 L281.757481,201.520916 C281.732794,201.535878 281.708855,201.55084 281.68716,201.565802 C281.500885,201.678015 281.253267,201.865038 280.922611,202.194198 C279.209481,203.899099 279.218458,206.682748 280.942809,208.402611 C281.788153,209.248702 282.905053,209.705038 284.08629,209.705038 C285.24658,209.705038 286.34029,209.255435 287.164687,208.433282 C287.422779,208.178931 287.595588,207.969466 287.710046,207.804885 C287.776626,207.752519 287.834229,207.692672 287.879863,207.617863 L296.15974,194.331008 L296.272702,194.263679 C296.46571,194.144733 296.593634,193.942748 296.619069,193.717573 C296.645252,193.493893 296.565954,193.269466 296.404366,193.104885 L296.325817,193.030076 L296.325817,193.030076 Z" id="Fill-559"/>
            <path d="M40.8951756,252.929771 C41.3185954,252.502611 41.8826565,252.27145 42.4818779,252.27145 C43.0810992,252.27145 43.6451603,252.502611 44.0685802,252.929771 C44.4927481,253.348702 44.7261527,253.916504 44.7261527,254.515725 C44.7261527,255.114198 44.4927481,255.675267 44.0685802,256.100931 C43.2209924,256.947023 41.7427634,256.947023 40.8951756,256.100931 C40.0199084,255.225664 40.0206565,253.805038 40.8951756,252.929771 L40.8951756,252.929771 Z M30.9014198,269.103511 L32.5270229,265.527634 L40.4193893,257.635267 C41.0260916,258.039237 41.7375267,258.256183 42.482626,258.256183 C43.4813282,258.256183 44.4201832,257.867176 45.1263817,257.156489 C45.8333282,256.453282 46.2223359,255.510687 46.2223359,254.515725 C46.2223359,253.512534 45.8333282,252.57742 45.1263817,251.867481 C44.4201832,251.164275 43.4813282,250.775267 42.4818779,250.775267 C41.4831756,250.775267 40.5435725,251.164275 39.836626,251.867481 C38.5596336,253.146718 38.4017863,255.121679 39.3615878,256.572977 L31.2769618,264.659847 L31.1236031,264.99574 L31.0951756,264.92916 L27.8080611,266.238321 L41.3200916,242.770687 L44.5458626,245.994962 L54.2224275,255.675267 L30.9014198,269.103511 L30.9014198,269.103511 Z M49.2708092,239.082595 L57.909771,247.723053 L54.014458,253.348702 L43.6451603,242.980153 L49.2708092,239.082595 L49.2708092,239.082595 Z M59.8510687,247.550244 L49.4466107,237.145038 L42.5701527,241.902901 L40.9984122,240.331908 L25.4351145,267.360458 L26.0829618,267.734504 L26.3612519,268.430229 L30.273771,266.865969 L28.5763511,270.599695 L29.2571145,270.913893 L29.6304122,271.557252 L56.6612061,255.996947 L55.0902137,254.425954 L59.8510687,247.550244 L59.8510687,247.550244 Z" id="Fill-428"/>
            <path d="M475.78626,365.816794 L475.78626,359.832061 L480.274809,359.832061 L475.78626,365.816794 L475.78626,365.816794 Z M451.099237,367.312977 L456.709924,359.832061 L474.290076,359.832061 L474.290076,367.312977 L451.099237,367.312977 L451.099237,367.312977 Z M455.587786,335.89313 L455.587786,341.877863 L451.099237,341.877863 L455.587786,335.89313 L455.587786,335.89313 Z M474.664122,341.877863 L457.083969,341.877863 L457.083969,334.396947 L480.274809,334.396947 L474.664122,341.877863 L474.664122,341.877863 Z M475.78626,342.872824 L481.022901,335.89313 L481.022901,358.335878 L475.78626,358.335878 L475.78626,342.872824 L475.78626,342.872824 Z M457.083969,358.335878 L474.290076,358.335878 L474.290076,343.374046 L457.083969,343.374046 L457.083969,358.335878 Z M450.351145,343.374046 L455.587786,343.374046 L455.587786,358.836351 L450.351145,365.816794 L450.351145,343.374046 L450.351145,343.374046 Z M482.519084,333.648855 L482.513099,333.648855 C482.513099,333.536641 482.492901,333.416947 482.440534,333.312214 C482.313359,333.057863 482.054519,332.900763 481.770992,332.900763 L456.335878,332.900763 C456.100229,332.900763 455.878794,333.012229 455.737405,333.2 L449.229756,341.877863 L448.854962,341.877863 L448.854962,368.80916 L475.78626,368.80916 L475.78626,368.307939 L482.369466,359.532824 C482.468214,359.39742 482.513099,359.240321 482.513099,359.083969 L482.519084,359.083969 L482.519084,333.648855 L482.519084,333.648855 Z" id="Fill-454"/>
            <path d="M404.413084,39.0945191 L413.141069,30.3650382 C413.414122,30.0949771 413.414122,29.6543511 413.141069,29.3775573 C413.004916,29.2429008 412.826122,29.1755725 412.647328,29.1755725 C412.468534,29.1755725 412.290489,29.2429008 412.153588,29.3775573 L403.425603,38.1070382 C403.153298,38.3770992 403.153298,38.8259542 403.425603,39.0945191 C403.698656,39.3645802 404.140779,39.3645802 404.413084,39.0945191 L404.413084,39.0945191 Z M412.502947,34.6141985 L408.662244,38.4593893 C408.389939,38.7287023 408.389939,39.1693282 408.662244,39.4468702 C408.935298,39.7154351 409.37742,39.7154351 409.649725,39.4468702 L413.490427,35.6016794 C413.762733,35.3316183 413.762733,34.8909924 413.490427,34.6141985 C413.353527,34.479542 413.175481,34.4122137 412.996687,34.4122137 C412.817893,34.4122137 412.639099,34.479542 412.502947,34.6141985 L412.502947,34.6141985 Z M400.977099,40.3969466 L414.442748,40.3969466 L414.442748,27.6793893 L400.977099,27.6793893 L400.977099,40.3969466 Z M399.480916,41.8931298 L415.938931,41.8931298 L415.938931,26.1832061 L399.480916,26.1832061 L399.480916,41.8931298 Z M420.427481,40.3969466 L433.89313,40.3969466 L433.89313,13.4656489 L420.427481,13.4656489 L420.427481,40.3969466 Z M418.931298,41.8931298 L435.389313,41.8931298 L435.389313,11.9694656 L418.931298,11.9694656 L418.931298,41.8931298 Z M397.236641,46.3816794 L437.633588,46.3816794 L437.633588,44.8854962 L397.236641,44.8854962 L397.236641,46.3816794 Z" id="Fill-500"/>
            <path d="M296.135053,104.313145 L307.465649,95.9352672 L307.465649,115.647481 L296.135053,104.313145 L296.135053,104.313145 Z M285.600427,105.211603 L290.259542,108.660305 L294.918656,105.211603 L306.407847,116.70229 L274.111237,116.70229 L285.600427,105.211603 L285.600427,105.211603 Z M284.384031,104.313145 L273.053435,115.647481 L273.053435,95.9352672 L284.384031,104.313145 L284.384031,104.313145 Z M290.259542,106.797557 L274.313221,95.0076336 L306.205863,95.0076336 L290.259542,106.797557 L290.259542,106.797557 Z M306.717557,93.5114504 L273.801527,93.5114504 C272.564183,93.5114504 271.557252,94.521374 271.557252,95.7557252 L271.557252,115.954198 C271.557252,117.196031 272.564183,118.198473 273.801527,118.198473 L306.717557,118.198473 C307.954901,118.198473 308.961832,117.196031 308.961832,115.954198 L308.961832,95.7557252 C308.961832,94.521374 307.954901,93.5114504 306.717557,93.5114504 L306.717557,93.5114504 Z" id="Fill-386"/>
            <path d="M122.687023,291.890382 C123.509924,291.890382 124.183206,292.563664 124.183206,293.393298 C124.183206,294.231908 123.509924,294.905191 122.687023,294.905191 C121.864122,294.905191 121.19084,294.231908 121.19084,293.393298 C121.19084,292.563664 121.864122,291.890382 122.687023,291.890382 L122.687023,291.890382 Z M122.687023,296.415588 C124.340305,296.415588 125.679389,295.061542 125.679389,293.393298 C125.679389,291.733282 124.340305,290.379237 122.687023,290.379237 C121.03374,290.379237 119.694656,291.733282 119.694656,293.393298 C119.694656,295.061542 121.03374,296.415588 122.687023,296.415588 L122.687023,296.415588 Z M114.458015,291.890382 C115.280916,291.890382 115.954198,292.563664 115.954198,293.393298 C115.954198,294.231908 115.280916,294.905191 114.458015,294.905191 C113.635115,294.905191 112.961832,294.231908 112.961832,293.393298 C112.961832,292.563664 113.635115,291.890382 114.458015,291.890382 L114.458015,291.890382 Z M114.458015,296.415588 C116.111298,296.415588 117.450382,295.061542 117.450382,293.393298 C117.450382,291.733282 116.111298,290.379237 114.458015,290.379237 C112.804733,290.379237 111.465649,291.733282 111.465649,293.393298 C111.465649,295.061542 112.804733,296.415588 114.458015,296.415588 L114.458015,296.415588 Z M106.229008,294.905191 C105.406107,294.905191 104.732824,294.231908 104.732824,293.393298 C104.732824,292.563664 105.406107,291.890382 106.229008,291.890382 C107.051908,291.890382 107.725191,292.563664 107.725191,293.393298 C107.725191,294.231908 107.051908,294.905191 106.229008,294.905191 L106.229008,294.905191 Z M106.229008,290.379237 C104.575725,290.379237 103.236641,291.733282 103.236641,293.393298 C103.236641,295.061542 104.575725,296.415588 106.229008,296.415588 C107.88229,296.415588 109.221374,295.061542 109.221374,293.393298 C109.221374,291.733282 107.88229,290.379237 106.229008,290.379237 L106.229008,290.379237 Z M108.473282,276.793893 L108.473282,278.305038 L135.40458,278.305038 L135.40458,302.98458 L133.160305,302.98458 L133.160305,304.480763 L136.900763,304.480763 L136.900763,276.793893 L108.473282,276.793893 L108.473282,276.793893 Z M98.7480916,281.319847 L130.167939,281.319847 L130.167939,306.725038 L117.450382,306.725038 L114.458015,311.961679 L111.465649,306.725038 L98.7480916,306.725038 L98.7480916,281.319847 L98.7480916,281.319847 Z M97.2519084,308.221221 L110.717557,308.221221 L114.458015,314.954046 L118.198473,308.221221 L131.664122,308.221221 L131.664122,279.816183 L97.2519084,279.816183 L97.2519084,308.221221 L97.2519084,308.221221 Z" id="Fill-412"/>
            <path d="M380.778626,395.740458 C379.952733,395.740458 379.282443,395.067176 379.282443,394.244275 C379.282443,393.420626 379.952733,392.748092 380.778626,392.748092 C381.603771,392.748092 382.274809,393.420626 382.274809,394.244275 C382.274809,395.067176 381.603771,395.740458 380.778626,395.740458 L380.778626,395.740458 Z M380.778626,391.251908 C379.129084,391.251908 377.78626,392.590992 377.78626,394.244275 C377.78626,395.897557 379.129084,397.236641 380.778626,397.236641 C382.428168,397.236641 383.770992,395.897557 383.770992,394.244275 C383.770992,392.590992 382.428168,391.251908 380.778626,391.251908 L380.778626,391.251908 Z M372.549618,395.740458 C371.723725,395.740458 371.053435,395.067176 371.053435,394.244275 C371.053435,393.420626 371.723725,392.748092 372.549618,392.748092 C373.375511,392.748092 374.045802,393.420626 374.045802,394.244275 C374.045802,395.067176 373.375511,395.740458 372.549618,395.740458 L372.549618,395.740458 Z M372.549618,391.251908 C370.900076,391.251908 369.557252,392.590992 369.557252,394.244275 C369.557252,395.897557 370.900076,397.236641 372.549618,397.236641 C374.19916,397.236641 375.541985,395.897557 375.541985,394.244275 C375.541985,392.590992 374.19916,391.251908 372.549618,391.251908 L372.549618,391.251908 Z M364.320611,395.740458 C363.494718,395.740458 362.824427,395.067176 362.824427,394.244275 C362.824427,393.420626 363.494718,392.748092 364.320611,392.748092 C365.146504,392.748092 365.816794,393.420626 365.816794,394.244275 C365.816794,395.067176 365.146504,395.740458 364.320611,395.740458 L364.320611,395.740458 Z M364.320611,391.251908 C362.670321,391.251908 361.328244,392.590992 361.328244,394.244275 C361.328244,395.897557 362.670321,397.236641 364.320611,397.236641 C365.970153,397.236641 367.312977,395.897557 367.312977,394.244275 C367.312977,392.590992 365.970153,391.251908 364.320611,391.251908 L364.320611,391.251908 Z M380.778626,387.51145 C379.952733,387.51145 379.282443,386.838168 379.282443,386.015267 C379.282443,385.191618 379.952733,384.519084 380.778626,384.519084 C381.603771,384.519084 382.274809,385.191618 382.274809,386.015267 C382.274809,386.838168 381.603771,387.51145 380.778626,387.51145 L380.778626,387.51145 Z M380.778626,383.022901 C379.129084,383.022901 377.78626,384.361985 377.78626,386.015267 C377.78626,387.66855 379.129084,389.007634 380.778626,389.007634 C382.428168,389.007634 383.770992,387.66855 383.770992,386.015267 C383.770992,384.361985 382.428168,383.022901 380.778626,383.022901 L380.778626,383.022901 Z M372.549618,387.51145 C371.723725,387.51145 371.053435,386.838168 371.053435,386.015267 C371.053435,385.191618 371.723725,384.519084 372.549618,384.519084 C373.375511,384.519084 374.045802,385.191618 374.045802,386.015267 C374.045802,386.838168 373.375511,387.51145 372.549618,387.51145 L372.549618,387.51145 Z M372.549618,383.022901 C370.900076,383.022901 369.557252,384.361985 369.557252,386.015267 C369.557252,387.66855 370.900076,389.007634 372.549618,389.007634 C374.19916,389.007634 375.541985,387.66855 375.541985,386.015267 C375.541985,384.361985 374.19916,383.022901 372.549618,383.022901 L372.549618,383.022901 Z M364.320611,387.51145 C363.494718,387.51145 362.824427,386.838168 362.824427,386.015267 C362.824427,385.191618 363.494718,384.519084 364.320611,384.519084 C365.146504,384.519084 365.816794,385.191618 365.816794,386.015267 C365.816794,386.838168 365.146504,387.51145 364.320611,387.51145 L364.320611,387.51145 Z M364.320611,383.022901 C362.670321,383.022901 361.328244,384.361985 361.328244,386.015267 C361.328244,387.66855 362.670321,389.007634 364.320611,389.007634 C365.970153,389.007634 367.312977,387.66855 367.312977,386.015267 C367.312977,384.361985 365.970153,383.022901 364.320611,383.022901 L364.320611,383.022901 Z M380.778626,379.282443 C379.952733,379.282443 379.282443,378.60916 379.282443,377.78626 C379.282443,376.962611 379.952733,376.290076 380.778626,376.290076 C381.603771,376.290076 382.274809,376.962611 382.274809,377.78626 C382.274809,378.60916 381.603771,379.282443 380.778626,379.282443 L380.778626,379.282443 Z M380.778626,374.793893 C379.129084,374.793893 377.78626,376.132977 377.78626,377.78626 C377.78626,379.439542 379.129084,380.778626 380.778626,380.778626 C382.428168,380.778626 383.770992,379.439542 383.770992,377.78626 C383.770992,376.132977 382.428168,374.793893 380.778626,374.793893 L380.778626,374.793893 Z M372.549618,379.282443 C371.723725,379.282443 371.053435,378.60916 371.053435,377.78626 C371.053435,376.962611 371.723725,376.290076 372.549618,376.290076 C373.375511,376.290076 374.045802,376.962611 374.045802,377.78626 C374.045802,378.60916 373.375511,379.282443 372.549618,379.282443 L372.549618,379.282443 Z M372.549618,374.793893 C370.900076,374.793893 369.557252,376.132977 369.557252,377.78626 C369.557252,379.439542 370.900076,380.778626 372.549618,380.778626 C374.19916,380.778626 375.541985,379.439542 375.541985,377.78626 C375.541985,376.132977 374.19916,374.793893 372.549618,374.793893 L372.549618,374.793893 Z M364.320611,379.282443 C363.494718,379.282443 362.824427,378.60916 362.824427,377.78626 C362.824427,376.962611 363.494718,376.290076 364.320611,376.290076 C365.146504,376.290076 365.816794,376.962611 365.816794,377.78626 C365.816794,378.60916 365.146504,379.282443 364.320611,379.282443 L364.320611,379.282443 Z M364.320611,374.793893 C362.670321,374.793893 361.328244,376.132977 361.328244,377.78626 C361.328244,379.439542 362.670321,380.778626 364.320611,380.778626 C365.970153,380.778626 367.312977,379.439542 367.312977,377.78626 C367.312977,376.132977 365.970153,374.793893 364.320611,374.793893 L364.320611,374.793893 Z M362.824427,371.053435 L382.274809,371.053435 L382.274809,367.312977 L362.824427,367.312977 L362.824427,371.053435 Z M361.328244,372.549618 L383.770992,372.549618 L383.770992,365.816794 L361.328244,365.816794 L361.328244,372.549618 Z M385.267176,394.992366 C385.267176,397.057099 383.589206,398.732824 381.526718,398.732824 L363.572519,398.732824 C361.510031,398.732824 359.832061,397.057099 359.832061,394.992366 L359.832061,366.564885 C359.832061,364.500153 361.510031,362.824427 363.572519,362.824427 L381.526718,362.824427 C383.589206,362.824427 385.267176,364.500153 385.267176,366.564885 L385.267176,394.992366 L385.267176,394.992366 Z M381.526718,361.328244 L363.572519,361.328244 C360.684885,361.328244 358.335878,363.677252 358.335878,366.564885 L358.335878,394.992366 C358.335878,397.88 360.684885,400.229008 363.572519,400.229008 L381.526718,400.229008 C384.413603,400.229008 386.763359,397.88 386.763359,394.992366 L386.763359,366.564885 C386.763359,363.677252 384.413603,361.328244 381.526718,361.328244 L381.526718,361.328244 Z" id="Fill-351"/>
            <path d="M121.19084,228.916031 C121.19084,229.327481 120.854947,229.664122 120.442748,229.664122 L112.21374,229.664122 C111.801542,229.664122 111.465649,229.327481 111.465649,228.916031 L111.465649,224.427481 C111.465649,224.015282 111.801542,223.679389 112.21374,223.679389 L120.442748,223.679389 C120.854947,223.679389 121.19084,224.015282 121.19084,224.427481 L121.19084,228.916031 L121.19084,228.916031 Z M106.229008,223.679389 C106.641206,223.679389 106.977099,224.015282 106.977099,224.427481 L106.977099,228.916031 C106.977099,229.327481 106.641206,229.664122 106.229008,229.664122 L98,229.664122 C97.5878015,229.664122 97.2519084,229.327481 97.2519084,228.916031 L97.2519084,224.427481 C97.2519084,224.015282 97.5878015,223.679389 98,223.679389 L106.229008,223.679389 L106.229008,223.679389 Z M92.0152672,223.679389 C92.4274656,223.679389 92.7633588,224.015282 92.7633588,224.427481 L92.7633588,228.916031 C92.7633588,229.327481 92.4274656,229.664122 92.0152672,229.664122 L83.7862595,229.664122 C83.3740611,229.664122 83.0381679,229.327481 83.0381679,228.916031 L83.0381679,224.427481 C83.0381679,224.015282 83.3740611,223.679389 83.7862595,223.679389 L92.0152672,223.679389 L92.0152672,223.679389 Z M120.442748,222.183206 L117.450382,222.183206 L117.450382,217.694656 L86.778626,217.694656 L86.778626,222.183206 L83.7862595,222.183206 C82.548916,222.183206 81.5419847,223.19313 81.5419847,224.427481 L81.5419847,228.916031 C81.5419847,230.157863 82.548916,231.160305 83.7862595,231.160305 L92.0152672,231.160305 C93.2526107,231.160305 94.259542,230.157863 94.259542,228.916031 L94.259542,224.427481 C94.259542,223.19313 93.2526107,222.183206 92.0152672,222.183206 L88.2748092,222.183206 L88.2748092,219.19084 L100.992366,219.19084 L100.992366,222.183206 L98,222.183206 C96.7626565,222.183206 95.7557252,223.19313 95.7557252,224.427481 L95.7557252,228.916031 C95.7557252,230.157863 96.7626565,231.160305 98,231.160305 L106.229008,231.160305 C107.466351,231.160305 108.473282,230.157863 108.473282,228.916031 L108.473282,224.427481 C108.473282,223.19313 107.466351,222.183206 106.229008,222.183206 L102.48855,222.183206 L102.48855,219.19084 L115.954198,219.19084 L115.954198,222.183206 L112.21374,222.183206 C110.976397,222.183206 109.969466,223.19313 109.969466,224.427481 L109.969466,228.916031 C109.969466,230.157863 110.976397,231.160305 112.21374,231.160305 L120.442748,231.160305 C121.680092,231.160305 122.687023,230.157863 122.687023,228.916031 L122.687023,224.427481 C122.687023,223.19313 121.680092,222.183206 120.442748,222.183206 L120.442748,222.183206 Z M97.2519084,204.977099 C97.2519084,204.564901 97.5878015,204.229008 98,204.229008 L106.229008,204.229008 C106.641206,204.229008 106.977099,204.564901 106.977099,204.977099 L106.977099,209.465649 C106.977099,209.877099 106.641206,210.21374 106.229008,210.21374 L98,210.21374 C97.5878015,210.21374 97.2519084,209.877099 97.2519084,209.465649 L97.2519084,204.977099 L97.2519084,204.977099 Z M98,211.709924 L100.992366,211.709924 L100.992366,215.450382 L102.48855,215.450382 L102.48855,211.709924 L106.229008,211.709924 C107.466351,211.709924 108.473282,210.706733 108.473282,209.465649 L108.473282,204.977099 C108.473282,203.742748 107.466351,202.732824 106.229008,202.732824 L98,202.732824 C96.7626565,202.732824 95.7557252,203.742748 95.7557252,204.977099 L95.7557252,209.465649 C95.7557252,210.706733 96.7626565,211.709924 98,211.709924 L98,211.709924 Z" id="Fill-295"/>
            <path d="M260.335878,286.519084 C259.509985,286.519084 258.839695,285.845802 258.839695,285.022901 C258.839695,284.199252 259.509985,283.526718 260.335878,283.526718 C261.161771,283.526718 261.832061,284.199252 261.832061,285.022901 C261.832061,285.845802 261.161771,286.519084 260.335878,286.519084 L260.335878,286.519084 Z M260.335878,282.030534 C258.685588,282.030534 257.343511,283.369618 257.343511,285.022901 C257.343511,286.676183 258.685588,288.015267 260.335878,288.015267 C261.98542,288.015267 263.328244,286.676183 263.328244,285.022901 C263.328244,283.369618 261.98542,282.030534 260.335878,282.030534 L260.335878,282.030534 Z M269.312977,279.038168 L274.549618,279.038168 L274.549618,277.541985 L269.312977,277.541985 L269.312977,279.038168 Z M269.312977,274.549618 L274.549618,274.549618 L274.549618,273.053435 L269.312977,273.053435 L269.312977,274.549618 Z M269.312977,270.061069 L274.549618,270.061069 L274.549618,268.564885 L269.312977,268.564885 L269.312977,270.061069 Z M257.343511,279.038168 L263.328244,279.038168 L263.328244,277.541985 L257.343511,277.541985 L257.343511,279.038168 Z M257.343511,274.549618 L263.328244,274.549618 L263.328244,273.053435 L257.343511,273.053435 L257.343511,274.549618 Z M257.343511,270.061069 L263.328244,270.061069 L263.328244,268.564885 L257.343511,268.564885 L257.343511,270.061069 Z M246.122137,279.038168 L251.358779,279.038168 L251.358779,277.541985 L246.122137,277.541985 L246.122137,279.038168 Z M246.122137,274.549618 L251.358779,274.549618 L251.358779,273.053435 L246.122137,273.053435 L246.122137,274.549618 Z M246.122137,270.061069 L251.358779,270.061069 L251.358779,268.564885 L246.122137,268.564885 L246.122137,270.061069 Z M242.381679,291.755725 L252.10687,291.755725 L252.10687,290.259542 L243.877863,290.259542 L243.877863,264.076336 L252.10687,264.076336 L252.10687,262.580153 L242.381679,262.580153 L242.381679,291.755725 L242.381679,291.755725 Z M268.564885,262.580153 L268.564885,264.076336 L276.793893,264.076336 L276.793893,290.259542 L268.564885,290.259542 L268.564885,291.755725 L278.290076,291.755725 L278.290076,262.580153 L268.564885,262.580153 L268.564885,262.580153 Z M255.099237,291.007634 L265.572519,291.007634 L265.572519,263.328244 L255.099237,263.328244 L255.099237,291.007634 Z M253.603053,292.503817 L267.068702,292.503817 L267.068702,261.832061 L253.603053,261.832061 L253.603053,292.503817 Z" id="Fill-315"/>
            <path d="M85.2824427,80.0458015 L100.992366,80.0458015 L100.992366,78.5496183 L85.2824427,78.5496183 L85.2824427,80.0458015 Z M85.2824427,76.3053435 L100.992366,76.3053435 L100.992366,74.8091603 L85.2824427,74.8091603 L85.2824427,76.3053435 Z M85.2824427,72.5648855 L93.5114504,72.5648855 L93.5114504,71.0687023 L85.2824427,71.0687023 L85.2824427,72.5648855 Z M108.473282,65.8320611 L80.0458015,65.8320611 C78.808458,65.8320611 77.8015267,64.8213893 77.8015267,63.5877863 C77.8015267,62.3534351 78.808458,61.3435115 80.0458015,61.3435115 L108.473282,61.3435115 C109.710626,61.3435115 110.717557,62.3534351 110.717557,63.5877863 C110.717557,64.8213893 109.710626,65.8320611 108.473282,65.8320611 L108.473282,65.8320611 Z M106.229008,81.5419847 C106.229008,82.7755878 105.222076,83.7862595 103.984733,83.7862595 L84.5343511,83.7862595 C83.2970076,83.7862595 82.2900763,82.7755878 82.2900763,81.5419847 L82.2900763,67.3282443 L106.229008,67.3282443 L106.229008,81.5419847 L106.229008,81.5419847 Z M108.473282,59.8473282 L80.0458015,59.8473282 C77.983313,59.8473282 76.3053435,61.5223053 76.3053435,63.5877863 C76.3053435,65.6525191 77.983313,67.3282443 80.0458015,67.3282443 L80.7938931,67.3282443 L80.7938931,81.5419847 C80.7938931,83.6067176 82.4718626,85.2824427 84.5343511,85.2824427 L93.5114504,85.2824427 L93.5114504,88.2224427 L89.4994351,92.2322137 L90.5572366,93.2945038 L93.5114504,90.339542 L93.5114504,93.5114504 L95.0076336,93.5114504 L95.0076336,90.339542 L97.9625954,93.2945038 L99.0203969,92.2322137 L95.0076336,88.2224427 L95.0076336,85.2824427 L103.984733,85.2824427 C106.047221,85.2824427 107.725191,83.6067176 107.725191,81.5419847 L107.725191,67.3282443 L108.473282,67.3282443 C110.535771,67.3282443 112.21374,65.6525191 112.21374,63.5877863 C112.21374,61.5223053 110.535771,59.8473282 108.473282,59.8473282 L108.473282,59.8473282 Z" id="Fill-326"/>
            <path d="M133.137863,367.312977 L157.016947,367.312977 C157.429145,367.312977 157.763542,366.976336 157.763542,366.564885 C157.763542,366.152687 157.429145,365.816794 157.016947,365.816794 L134.630305,365.816794 L134.630305,361.328244 L124.183206,361.328244 L124.183206,375.541985 C124.183206,375.953435 124.517603,376.290076 124.929053,376.290076 C125.341252,376.290076 125.675649,375.953435 125.675649,375.541985 L125.675649,362.824427 L133.137863,362.824427 L133.137863,367.312977 L133.137863,367.312977 Z M157.551084,390.503817 L128.507176,390.503817 L130.87713,370.305344 L159.921038,370.305344 L157.551084,390.503817 L157.551084,390.503817 Z M129.550015,368.80916 L126.828458,392 L158.878198,392 L161.599008,368.80916 L129.550015,368.80916 L129.550015,368.80916 Z" id="Fill-235"/>
            <path d="M203.498385,139.89313 C204.324278,139.89313 204.994568,140.565664 204.994568,141.389313 C204.994568,142.212214 204.324278,142.885496 203.498385,142.885496 C202.672492,142.885496 202.002202,142.212214 202.002202,141.389313 C202.002202,140.565664 202.672492,139.89313 203.498385,139.89313 L203.498385,139.89313 Z M199.009835,139.89313 C199.835729,139.89313 200.506019,140.565664 200.506019,141.389313 C200.506019,142.212214 199.835729,142.885496 199.009835,142.885496 C198.183942,142.885496 197.513652,142.212214 197.513652,141.389313 C197.513652,140.565664 198.183942,139.89313 199.009835,139.89313 L199.009835,139.89313 Z M194.521286,139.89313 C195.347179,139.89313 196.017469,140.565664 196.017469,141.389313 C196.017469,142.212214 195.347179,142.885496 194.521286,142.885496 C193.695393,142.885496 193.025103,142.212214 193.025103,141.389313 C193.025103,140.565664 193.695393,139.89313 194.521286,139.89313 L194.521286,139.89313 Z M194.521286,160.839695 L202.002202,160.839695 L202.002202,150.366412 L194.521286,150.366412 L194.521286,160.839695 Z M193.025103,162.335878 L203.498385,162.335878 L203.498385,148.870229 L193.025103,148.870229 L193.025103,162.335878 Z M207.238843,160.839695 L214.719759,160.839695 L214.719759,150.366412 L207.238843,150.366412 L207.238843,160.839695 Z M205.74266,162.335878 L216.215942,162.335878 L216.215942,148.870229 L205.74266,148.870229 L205.74266,162.335878 Z M219.9564,160.839695 L227.437316,160.839695 L227.437316,150.366412 L219.9564,150.366412 L219.9564,160.839695 Z M218.460217,162.335878 L228.9335,162.335878 L228.9335,148.870229 L218.460217,148.870229 L218.460217,162.335878 Z M231.177774,145.877863 L190.780828,145.877863 L190.780828,163.083969 C190.780828,164.737252 191.372568,165.328244 193.025103,165.328244 L228.9335,165.328244 C230.590522,165.358168 231.200965,164.916046 231.177774,163.083969 C231.065561,162.208702 231.177774,145.877863 231.177774,145.877863 L231.177774,145.877863 Z M231.177774,140.641221 C231.177774,138.987939 230.586034,138.396947 228.9335,138.396947 L193.025103,138.396947 C191.372568,138.396947 190.780828,138.987939 190.780828,140.641221 L190.780828,144.381679 L231.177774,144.381679 L231.177774,140.641221 L231.177774,140.641221 Z M229.681591,166.824427 L192.277011,166.824427 C190.624477,166.824427 189.284645,165.485344 189.284645,163.832061 L189.284645,139.89313 C189.284645,138.239847 190.624477,136.900763 192.277011,136.900763 L229.681591,136.900763 C231.334126,136.900763 232.673958,138.239847 232.673958,139.89313 L232.673958,163.832061 C232.673958,165.485344 231.334126,166.824427 229.681591,166.824427 L229.681591,166.824427 Z" id="Fill-201"/>
            <path d="M98.8151014,157.847328 L134.630735,157.847328 L134.630735,156.351145 L98.8151014,156.351145 L98.8151014,157.847328 Z M98.8151014,160.839695 L134.630735,160.839695 L134.630735,159.343511 L98.8151014,159.343511 L98.8151014,160.839695 Z M98.8151014,163.832061 L134.630735,163.832061 L134.630735,162.335878 L98.8151014,162.335878 L98.8151014,163.832061 Z M104.26046,128.671756 L129.035758,128.671756 L134.388353,154.854962 L98.909361,154.854962 L104.26046,128.671756 L104.26046,128.671756 Z M135.978048,155.183374 L130.37559,127.774046 C130.305269,127.422443 129.998552,127.175573 129.644704,127.175573 L103.651514,127.175573 C103.296918,127.175573 102.991697,127.422443 102.920628,127.774046 L97.2643075,155.453435 C97.2328877,155.603053 97.2643075,155.751924 97.3234068,155.887328 L97.3234068,164.580153 C97.3234068,164.991603 97.6570556,165.328244 98.0692541,165.328244 L135.37733,165.328244 C135.789529,165.328244 136.123178,164.991603 136.123178,164.580153 L136.123178,155.603053 C136.123178,155.445954 136.062582,155.303817 135.978048,155.183374 L135.978048,155.183374 Z M130.900002,148.122137 L102.545834,148.122137 C102.133636,148.122137 101.799987,148.458031 101.799987,148.870229 C101.799987,149.281679 102.133636,149.618321 102.545834,149.618321 L130.900002,149.618321 C131.312201,149.618321 131.64585,149.281679 131.64585,148.870229 C131.64585,148.458031 131.312201,148.122137 130.900002,148.122137 L130.900002,148.122137 Z M104.038277,144.381679 L129.407559,144.381679 C129.820506,144.381679 130.153407,144.045038 130.153407,143.633588 C130.153407,143.221389 129.820506,142.885496 129.407559,142.885496 L104.038277,142.885496 C103.626079,142.885496 103.29243,143.221389 103.29243,143.633588 C103.29243,144.045038 103.626079,144.381679 104.038277,144.381679 L104.038277,144.381679 Z M105.53072,139.145038 L127.915117,139.145038 C128.328063,139.145038 128.661712,138.808397 128.661712,138.396947 C128.661712,137.984748 128.328063,137.648855 127.915117,137.648855 L105.53072,137.648855 C105.119269,137.648855 104.784124,137.984748 104.784124,138.396947 C104.784124,138.808397 105.119269,139.145038 105.53072,139.145038 L105.53072,139.145038 Z M107.022414,133.908397 L126.423422,133.908397 C126.835621,133.908397 127.169269,133.571756 127.169269,133.160305 C127.169269,132.748107 126.835621,132.412214 126.423422,132.412214 L107.022414,132.412214 C106.610964,132.412214 106.276567,132.748107 106.276567,133.160305 C106.276567,133.571756 106.610964,133.908397 107.022414,133.908397 L107.022414,133.908397 Z" id="Fill-240"/>
            <path d="M474.290076,117.450382 L475.78626,117.450382 L475.78626,115.954198 L474.290076,115.954198 L474.290076,117.450382 Z M472.793893,118.946565 L477.282443,118.946565 L477.282443,114.458015 L472.793893,114.458015 L472.793893,118.946565 Z M466.80916,117.450382 L468.305344,117.450382 L468.305344,115.954198 L466.80916,115.954198 L466.80916,117.450382 Z M465.312977,118.946565 L469.801527,118.946565 L469.801527,114.458015 L465.312977,114.458015 L465.312977,118.946565 Z M459.328244,117.450382 L460.824427,117.450382 L460.824427,115.954198 L459.328244,115.954198 L459.328244,117.450382 Z M457.832061,118.946565 L462.320611,118.946565 L462.320611,114.458015 L457.832061,114.458015 L457.832061,118.946565 Z M451.847328,117.450382 L453.343511,117.450382 L453.343511,115.954198 L451.847328,115.954198 L451.847328,117.450382 Z M450.351145,118.946565 L454.839695,118.946565 L454.839695,114.458015 L450.351145,114.458015 L450.351145,118.946565 Z M474.290076,109.969466 L475.78626,109.969466 L475.78626,108.473282 L474.290076,108.473282 L474.290076,109.969466 Z M472.793893,111.465649 L477.282443,111.465649 L477.282443,106.977099 L472.793893,106.977099 L472.793893,111.465649 Z M466.80916,109.969466 L468.305344,109.969466 L468.305344,108.473282 L466.80916,108.473282 L466.80916,109.969466 Z M465.312977,111.465649 L469.801527,111.465649 L469.801527,106.977099 L465.312977,106.977099 L465.312977,111.465649 Z M459.328244,109.969466 L460.824427,109.969466 L460.824427,108.473282 L459.328244,108.473282 L459.328244,109.969466 Z M457.832061,111.465649 L462.320611,111.465649 L462.320611,106.977099 L457.832061,106.977099 L457.832061,111.465649 Z M451.847328,109.969466 L453.343511,109.969466 L453.343511,108.473282 L451.847328,108.473282 L451.847328,109.969466 Z M450.351145,111.465649 L454.839695,111.465649 L454.839695,106.977099 L450.351145,106.977099 L450.351145,111.465649 Z M474.290076,102.48855 L475.78626,102.48855 L475.78626,100.992366 L474.290076,100.992366 L474.290076,102.48855 Z M472.793893,103.984733 L477.282443,103.984733 L477.282443,99.4961832 L472.793893,99.4961832 L472.793893,103.984733 Z M466.80916,102.48855 L468.305344,102.48855 L468.305344,100.992366 L466.80916,100.992366 L466.80916,102.48855 Z M465.312977,103.984733 L469.801527,103.984733 L469.801527,99.4961832 L465.312977,99.4961832 L465.312977,103.984733 Z M459.328244,102.48855 L460.824427,102.48855 L460.824427,100.992366 L459.328244,100.992366 L459.328244,102.48855 Z M457.832061,103.984733 L462.320611,103.984733 L462.320611,99.4961832 L457.832061,99.4961832 L457.832061,103.984733 Z M451.847328,102.48855 L453.343511,102.48855 L453.343511,100.992366 L451.847328,100.992366 L451.847328,102.48855 Z M450.351145,103.984733 L454.839695,103.984733 L454.839695,99.4961832 L450.351145,99.4961832 L450.351145,103.984733 Z M481.022901,121.938931 C481.022901,122.350382 480.687756,122.687023 480.274809,122.687023 L448.10687,122.687023 C447.693924,122.687023 447.358779,122.350382 447.358779,121.938931 L447.358779,94.259542 C447.358779,93.8473435 447.693924,93.5114504 448.10687,93.5114504 L454.839695,93.5114504 L454.839695,95.7557252 C454.839695,96.1671756 455.174092,96.5038168 455.587786,96.5038168 C456.000733,96.5038168 456.335878,96.1671756 456.335878,95.7557252 L456.335878,93.5114504 L463.068702,93.5114504 L463.068702,95.7557252 C463.068702,96.1671756 463.403099,96.5038168 463.816794,96.5038168 C464.230489,96.5038168 464.564885,96.1671756 464.564885,95.7557252 L464.564885,93.5114504 L471.29771,93.5114504 L471.29771,95.7557252 C471.29771,96.1671756 471.632107,96.5038168 472.045802,96.5038168 C472.459496,96.5038168 472.793893,96.1671756 472.793893,95.7557252 L472.793893,93.5114504 L480.274809,93.5114504 C480.687756,93.5114504 481.022901,93.8473435 481.022901,94.259542 L481.022901,121.938931 L481.022901,121.938931 Z M480.274809,92.0152672 L472.793893,92.0152672 L472.793893,89.0229008 C472.793893,88.6107023 472.459496,88.2748092 472.045802,88.2748092 C471.632107,88.2748092 471.29771,88.6107023 471.29771,89.0229008 L471.29771,92.0152672 L464.564885,92.0152672 L464.564885,89.0229008 C464.564885,88.6107023 464.230489,88.2748092 463.816794,88.2748092 C463.403099,88.2748092 463.068702,88.6107023 463.068702,89.0229008 L463.068702,92.0152672 L456.335878,92.0152672 L456.335878,89.0229008 C456.335878,88.6107023 456.000733,88.2748092 455.587786,88.2748092 C455.174092,88.2748092 454.839695,88.6107023 454.839695,89.0229008 L454.839695,92.0152672 L448.10687,92.0152672 C446.869527,92.0152672 445.862595,93.0177099 445.862595,94.259542 L445.862595,121.938931 C445.862595,123.172534 446.869527,124.183206 448.10687,124.183206 L480.274809,124.183206 C481.512153,124.183206 482.519084,123.172534 482.519084,121.938931 L482.519084,94.259542 C482.519084,93.0177099 481.512153,92.0152672 480.274809,92.0152672 L480.274809,92.0152672 Z" id="Fill-111"/>
        </g>
    </g>
</svg>